<svg xmlns="http://www.w3.org/2000/svg" version="1.1" width="764" height="1024">
<rect x="0" y="0" width="764" height="1024" fill="#c1c0b3" />
<g transform="scale(4.000000) translate(0.5 0.5)">
<polygon fill="#000014" fill-opacity="0.501961" points="13,270 65,269 38,207" />
<polygon fill="#e7e8fa" fill-opacity="0.501961" points="-16,20 110,-10 13,143" />
<polygon fill="#450036" fill-opacity="0.501961" points="172,240 141,271 133,224" />
<polygon fill="#fdff4a" fill-opacity="0.501961" points="206,36 170,66 62,-16" />
<polygon fill="#ffcc00" fill-opacity="0.501961" points="206,94 128,95 134,132" />
<polygon fill="#deb200" fill-opacity="0.501961" points="50,119 -16,156 66,158" />
<polygon fill="#00afff" fill-opacity="0.501961" points="159,95 206,81 164,60" />
<polygon fill="#3d5c99" fill-opacity="0.501961" points="100,163 149,127 206,145" />
<polygon fill="#007f22" fill-opacity="0.501961" points="160,-2 157,29 110,-16" />
<polygon fill="#ecccff" fill-opacity="0.501961" points="160,93 157,25 77,32" />
<polygon fill="#ffff1a" fill-opacity="0.501961" points="156,223 206,221 172,187" />
<polygon fill="#ffff16" fill-opacity="0.501961" points="33,228 -15,219 9,270" />
<polygon fill="#fcfeff" fill-opacity="0.501961" points="141,146 123,113 64,145" />
<polygon fill="#b0d3ff" fill-opacity="0.501961" points="-9,208 -13,152 107,176" />
<polygon fill="#53378f" fill-opacity="0.501961" points="87,191 89,225 128,221" />
<polygon fill="#f72b88" fill-opacity="0.501961" points="158,27 166,-16 206,28" />
<polygon fill="#fff273" fill-opacity="0.501961" points="-16,55 -15,18 111,77" />
<polygon fill="#122266" fill-opacity="0.501961" points="61,166 92,159 68,146" />
<polygon fill="#27217f" fill-opacity="0.501961" points="67,236 39,257 24,208" />
<polygon fill="#dcddff" fill-opacity="0.501961" points="48,265 78,159 89,271" />
<polygon fill="#ffff0e" fill-opacity="0.501961" points="92,29 105,-16 126,25" />
<polygon fill="#d5befd" fill-opacity="0.501961" points="131,233 166,102 206,140" />
<polygon fill="#f6f21f" fill-opacity="0.501961" points="94,58 61,73 93,97" />
<polygon fill="#0118ff" fill-opacity="0.501961" points="187,132 162,140 175,158" />
<polygon fill="#79c2f7" fill-opacity="0.501961" points="129,113 96,128 96,27" />
<polygon fill="#fbffdd" fill-opacity="0.501961" points="49,170 122,204 134,167" />
<polygon fill="#98cbfd" fill-opacity="0.501961" points="61,120 -13,66 61,60" />
<polygon fill="#408c71" fill-opacity="0.501961" points="137,194 159,141 139,120" />
<polygon fill="#000a52" fill-opacity="0.501961" points="87,271 97,239 86,239" />
<polygon fill="#4848ff" fill-opacity="0.501961" points="63,-16 24,-16 61,22" />
<polygon fill="#ffff17" fill-opacity="0.501961" points="206,59 156,62 182,24" />
<polygon fill="#976700" fill-opacity="0.501961" points="123,146 99,164 125,169" />
<polygon fill="#1667ac" fill-opacity="0.501961" points="33,159 58,197 46,158" />
<polygon fill="#83d5ff" fill-opacity="0.501961" points="158,229 206,220 178,271" />
<polygon fill="#ffaf84" fill-opacity="0.501961" points="-16,165 35,148 9,110" />
<polygon fill="#737d2e" fill-opacity="0.501961" points="23,229 51,219 -1,205" />
<polygon fill="#41b4ff" fill-opacity="0.501961" points="197,61 155,62 202,106" />
<polygon fill="#e6daff" fill-opacity="0.501961" points="49,120 89,160 142,129" />
<polygon fill="#ffff00" fill-opacity="0.501961" points="-16,10 13,45 -16,80" />
<polygon fill="#bc8fc1" fill-opacity="0.501961" points="149,96 131,45 57,41" />
<polygon fill="#5bb5b9" fill-opacity="0.501961" points="159,27 128,3 126,28" />
<polygon fill="#b1e2ff" fill-opacity="0.501961" points="94,33 94,-16 39,22" />
<polygon fill="#ded70b" fill-opacity="0.501961" points="103,160 99,188 111,192" />
<polygon fill="#f6cac2" fill-opacity="0.501961" points="100,250 176,153 206,177" />
<polygon fill="#fff7f3" fill-opacity="0.501961" points="135,34 159,27 160,108" />
<polygon fill="#f7cc8c" fill-opacity="0.501961" points="64,35 63,123 97,125" />
<polygon fill="#ffdeb1" fill-opacity="0.501961" points="206,105 160,104 155,141" />
<polygon fill="#734663" fill-opacity="0.501961" points="176,271 108,271 158,221" />
<polygon fill="#e6e2f2" fill-opacity="0.501961" points="21,-16 -6,141 54,13" />
<polygon fill="#e9ebf3" fill-opacity="0.501961" points="20,199 83,244 107,230" />
<polygon fill="#c0ce00" fill-opacity="0.501961" points="127,117 164,104 151,132" />
<polygon fill="#349a51" fill-opacity="0.501961" points="19,15 -1,5 15,-10" />
<polygon fill="#d6e8ff" fill-opacity="0.501961" points="124,208 143,146 103,207" />
<polygon fill="#f95631" fill-opacity="0.501961" points="189,94 159,95 189,111" />
<polygon fill="#ffff4a" fill-opacity="0.501961" points="180,226 206,195 154,192" />
<polygon fill="#35114e" fill-opacity="0.501961" points="110,196 84,197 97,205" />
<polygon fill="#bf5833" fill-opacity="0.501961" points="52,191 74,220 53,205" />
<polygon fill="#fffc3d" fill-opacity="0.501961" points="94,27 126,-16 128,28" />
<polygon fill="#8fa00a" fill-opacity="0.501961" points="33,160 36,119 53,151" />
<polygon fill="#f5ebf8" fill-opacity="0.501961" points="90,208 54,153 63,209" />
<polygon fill="#240008" fill-opacity="0.501961" points="98,216 77,210 102,210" />
<polygon fill="#8a9fff" fill-opacity="0.501961" points="126,30 90,60 125,62" />
<polygon fill="#540636" fill-opacity="0.501961" points="129,155 113,148 105,159" />
<polygon fill="#f3ad88" fill-opacity="0.501961" points="152,58 129,83 127,30" />
<polygon fill="#c01532" fill-opacity="0.501961" points="152,26 185,18 189,27" />
<polygon fill="#000046" fill-opacity="0.501961" points="36,223 53,254 28,242" />
<polygon fill="#e78db2" fill-opacity="0.501961" points="33,58 92,63 92,35" />
<polygon fill="#d4fdff" fill-opacity="0.501961" points="164,158 145,196 159,123" />
<polygon fill="#cefffc" fill-opacity="0.501961" points="94,246 135,223 87,271" />
<polygon fill="#318bcc" fill-opacity="0.501961" points="162,258 160,232 180,231" />
<polygon fill="#eeb0da" fill-opacity="0.501961" points="202,24 152,12 206,-4" />
<polygon fill="#9586fb" fill-opacity="0.501961" points="17,193 28,166 -16,158" />
<polygon fill="#6f7dc8" fill-opacity="0.501961" points="78,242 52,251 40,222" />
<polygon fill="#ffff0b" fill-opacity="0.501961" points="162,55 161,27 188,31" />
<polygon fill="#98cbbd" fill-opacity="0.501961" points="32,127 44,65 68,127" />
<polygon fill="#957681" fill-opacity="0.501961" points="135,214 104,236 138,191" />
<polygon fill="#4298e6" fill-opacity="0.501961" points="93,126 100,101 119,113" />
<polygon fill="#a39700" fill-opacity="0.501961" points="19,271 32,250 20,224" />
<polygon fill="#5a90da" fill-opacity="0.501961" points="130,180 142,198 149,156" />
<polygon fill="#b48895" fill-opacity="0.501961" points="145,246 151,219 106,247" />
<polygon fill="#e11643" fill-opacity="0.501961" points="195,-16 187,4 160,0" />
<polygon fill="#fbfff7" fill-opacity="0.501961" points="78,78 92,115 73,96" />
<polygon fill="#b4e0bc" fill-opacity="0.501961" points="133,62 105,106 93,63" />
<polygon fill="#e8f3ff" fill-opacity="0.501961" points="-16,187 6,168 16,212" />
<polygon fill="#fff1d2" fill-opacity="0.501961" points="57,56 -7,27 65,32" />
<polygon fill="#dc7f38" fill-opacity="0.501961" points="68,117 97,126 78,110" />
<polygon fill="#d86827" fill-opacity="0.501961" points="38,203 50,224 32,220" />
<polygon fill="#dee6ff" fill-opacity="0.501961" points="95,57 124,32 93,28" />
<polygon fill="#00001e" fill-opacity="0.501961" points="73,164 79,157 68,153" />
<polygon fill="#fdfff0" fill-opacity="0.501961" points="179,40 169,68 168,55" />
<polygon fill="#ffffc0" fill-opacity="0.501961" points="124,169 91,160 120,194" />
<polygon fill="#f6ffca" fill-opacity="0.501961" points="18,215 28,234 32,228" />
<polygon fill="#092605" fill-opacity="0.501961" points="32,215 32,225 19,212" />
<polygon fill="#eecf99" fill-opacity="0.501961" points="152,227 180,206 138,191" />
<polygon fill="#e59d73" fill-opacity="0.501961" points="46,62 41,24 34,60" />
<polygon fill="#f3dbbc" fill-opacity="0.501961" points="40,188 69,221 21,210" />
<polygon fill="#edfe64" fill-opacity="0.501961" points="127,99 127,121 162,93" />
<polygon fill="#dcf5ff" fill-opacity="0.501961" points="180,223 206,225 181,271" />
<polygon fill="#370800" fill-opacity="0.501961" points="106,271 160,262 159,246" />
<polygon fill="#fecbf7" fill-opacity="0.501961" points="32,128 23,89 -16,108" />
<polygon fill="#fcbf77" fill-opacity="0.501961" points="35,126 -16,128 18,159" />
<polygon fill="#8d96de" fill-opacity="0.501961" points="127,202 126,225 96,219" />
<polygon fill="#ecedff" fill-opacity="0.501961" points="174,90 147,70 152,56" />
<polygon fill="#638c56" fill-opacity="0.501961" points="154,122 151,163 134,148" />
<polygon fill="#f9cb9f" fill-opacity="0.501961" points="144,100 195,131 188,103" />
<polygon fill="#a9a9fa" fill-opacity="0.501961" points="26,-16 60,14 41,28" />
<polygon fill="#df9ac9" fill-opacity="0.501961" points="206,160 158,162 172,194" />
<polygon fill="#bef2ff" fill-opacity="0.501961" points="146,185 158,198 158,141" />
<polygon fill="#0089ff" fill-opacity="0.501961" points="162,71 179,90 195,91" />
<polygon fill="#c3c300" fill-opacity="0.501961" points="97,93 91,68 87,91" />
<polygon fill="#fbfffd" fill-opacity="0.501961" points="141,27 156,42 134,65" />
<polygon fill="#beedfc" fill-opacity="0.501961" points="177,81 194,85 167,63" />
<polygon fill="#de74ab" fill-opacity="0.501961" points="130,94 128,64 152,91" />
<polygon fill="#529be3" fill-opacity="0.501961" points="35,75 45,71 58,100" />
<polygon fill="#00001f" fill-opacity="0.501961" points="95,241 88,254 90,242" />
<polygon fill="#f4ffff" fill-opacity="0.501961" points="190,10 191,85 206,37" />
<polygon fill="#949eff" fill-opacity="0.501961" points="159,135 200,136 172,127" />
<polygon fill="#479345" fill-opacity="0.501961" points="153,29 163,22 132,-6" />
<polygon fill="#2d31d3" fill-opacity="0.501961" points="9,165 -6,165 15,171" />
<polygon fill="#d9e744" fill-opacity="0.501961" points="82,61 70,93 63,63" />
<polygon fill="#c0d9dd" fill-opacity="0.501961" points="98,200 95,157 81,184" />
<polygon fill="#7c76c6" fill-opacity="0.501961" points="65,144 61,154 96,158" />
<polygon fill="#e8ee6d" fill-opacity="0.501961" points="48,127 62,124 62,153" />
<polygon fill="#f5f5b8" fill-opacity="0.501961" points="11,251 -13,246 2,219" />
<polygon fill="#fef1bd" fill-opacity="0.501961" points="148,62 154,43 179,28" />
<polygon fill="#c9fbed" fill-opacity="0.501961" points="-5,0 21,23 -12,33" />
<polygon fill="#b86639" fill-opacity="0.501961" points="153,192 148,193 155,206" />
<polygon fill="#80a98e" fill-opacity="0.501961" points="126,60 108,78 109,96" />
<polygon fill="#2134ec" fill-opacity="0.501961" points="175,134 166,149 189,146" />
<polygon fill="#d9d5f9" fill-opacity="0.501961" points="123,198 121,210 87,207" />
<polygon fill="#e3b4c8" fill-opacity="0.501961" points="57,200 78,227 78,188" />
<polygon fill="#95eeff" fill-opacity="0.501961" points="170,93 170,84 187,92" />
<polygon fill="#4943ed" fill-opacity="0.501961" points="41,-16 60,15 64,-16" />
<polygon fill="#62a978" fill-opacity="0.501961" points="20,225 19,194 11,214" />
<polygon fill="#f6ebff" fill-opacity="0.501961" points="72,32 98,15 78,46" />
<polygon fill="#bcc5f4" fill-opacity="0.501961" points="-16,63 66,61 10,96" />
<polygon fill="#7da088" fill-opacity="0.501961" points="52,115 25,108 43,124" />
<polygon fill="#6c2403" fill-opacity="0.501961" points="57,193 56,204 53,189" />
<polygon fill="#89c6f6" fill-opacity="0.501961" points="27,191 59,190 32,164" />
<polygon fill="#e5e6d4" fill-opacity="0.501961" points="120,24 103,9 127,47" />
<polygon fill="#defdff" fill-opacity="0.501961" points="63,193 84,178 47,158" />
<polygon fill="#ffffb0" fill-opacity="0.501961" points="26,31 30,61 1,61" />
<polygon fill="#fdf238" fill-opacity="0.501961" points="125,13 94,15 100,-16" />
<polygon fill="#edfbfe" fill-opacity="0.501961" points="146,215 107,236 121,240" />
<polygon fill="#d4f5ff" fill-opacity="0.501961" points="116,220 79,233 104,234" />
<polygon fill="#79a26b" fill-opacity="0.501961" points="78,169 65,167 57,153" />
<polygon fill="#d3f4ff" fill-opacity="0.501961" points="86,247 77,264 52,241" />
<polygon fill="#bcdbd6" fill-opacity="0.501961" points="144,19 126,21 148,11" />
<polygon fill="#fffcbf" fill-opacity="0.501961" points="180,37 174,52 192,37" />
<polygon fill="#007bff" fill-opacity="0.501961" points="196,79 172,61 177,72" />
<polygon fill="#dad7ce" fill-opacity="0.501961" points="139,153 132,148 116,151" />
<polygon fill="#e9eeff" fill-opacity="0.501961" points="90,-2 47,30 52,52" />
<polygon fill="#f2e1f8" fill-opacity="0.501961" points="71,121 105,151 138,141" />
<polygon fill="#ccdcbf" fill-opacity="0.501961" points="25,95 62,120 66,93" />
<polygon fill="#66a570" fill-opacity="0.501961" points="106,235 95,252 96,240" />
<polygon fill="#eae216" fill-opacity="0.501961" points="15,239 -14,271 21,271" />
<polygon fill="#902e48" fill-opacity="0.501961" points="127,235 151,221 141,233" />
<polygon fill="#c7dcdb" fill-opacity="0.501961" points="106,271 78,267 145,232" />
<polygon fill="#2a3474" fill-opacity="0.501961" points="98,215 118,209 94,209" />
<polygon fill="#b1deed" fill-opacity="0.501961" points="126,134 114,98 126,61" />
<polygon fill="#bcbd27" fill-opacity="0.501961" points="53,126 57,160 26,129" />
<polygon fill="#ccd630" fill-opacity="0.501961" points="126,169 100,162 127,161" />
<polygon fill="#e9f3f9" fill-opacity="0.501961" points="99,82 107,69 103,101" />
<polygon fill="#c35e2d" fill-opacity="0.501961" points="129,223 137,205 131,209" />
<polygon fill="#a8e3ff" fill-opacity="0.501961" points="93,-16 95,29 63,2" />
<polygon fill="#aad4be" fill-opacity="0.501961" points="137,0 131,13 142,27" />
<polygon fill="#8c92fd" fill-opacity="0.501961" points="189,152 176,158 187,130" />
<polygon fill="#d695ae" fill-opacity="0.501961" points="68,31 86,62 54,62" />
<polygon fill="#ee722f" fill-opacity="0.501961" points="202,95 161,94 160,106" />
<polygon fill="#ffffff" fill-opacity="0.501961" points="154,2 150,-16 145,-1" />
<polygon fill="#cc7d5b" fill-opacity="0.501961" points="137,193 143,191 149,211" />
<polygon fill="#efc7dc" fill-opacity="0.501961" points="140,96 158,95 159,61" />
<polygon fill="#5557b7" fill-opacity="0.501961" points="51,259 33,239 31,261" />
<polygon fill="#c5e2d1" fill-opacity="0.501961" points="36,175 17,200 25,214" />
<polygon fill="#e6f4d2" fill-opacity="0.501961" points="168,229 158,232 159,200" />
<polygon fill="#c18755" fill-opacity="0.501961" points="32,216 41,208 44,190" />
<polygon fill="#faf0f9" fill-opacity="0.501961" points="155,211 152,226 144,192" />
<polygon fill="#ce76ae" fill-opacity="0.501961" points="11,103 4,122 15,127" />
<polygon fill="#767cc5" fill-opacity="0.501961" points="98,213 103,193 112,192" />
<polygon fill="#f1efb1" fill-opacity="0.501961" points="93,-7 98,-16 121,14" />
<polygon fill="#fff000" fill-opacity="0.501961" points="121,13 106,28 113,27" />
<polygon fill="#d8ddff" fill-opacity="0.501961" points="90,152 61,144 83,124" />
<polygon fill="#c0e9c9" fill-opacity="0.501961" points="135,144 141,130 125,119" />
<polygon fill="#f1ef21" fill-opacity="0.501961" points="175,222 169,194 190,205" />
<polygon fill="#98b09d" fill-opacity="0.501961" points="88,157 83,199 93,182" />
<polygon fill="#fffe00" fill-opacity="0.501961" points="189,43 176,51 172,62" />
<polygon fill="#55834f" fill-opacity="0.501961" points="138,125 147,158 149,125" />
<polygon fill="#3a3300" fill-opacity="0.501961" points="32,242 22,252 31,233" />
<polygon fill="#311009" fill-opacity="0.501961" points="124,152 123,160 111,158" />
<polygon fill="#80c597" fill-opacity="0.501961" points="125,247 105,248 128,234" />
<polygon fill="#207a12" fill-opacity="0.501961" points="142,13 146,5 133,-13" />
<polygon fill="#eaaf62" fill-opacity="0.501961" points="129,30 137,59 128,57" />
<polygon fill="#1f7c00" fill-opacity="0.501961" points="126,8 156,-16 134,-7" />
<polygon fill="#ffe7d1" fill-opacity="0.501961" points="127,207 141,204 142,194" />
<polygon fill="#7972b0" fill-opacity="0.501961" points="70,267 51,253 49,233" />
<polygon fill="#cfd627" fill-opacity="0.501961" points="160,204 168,219 163,194" />
<polygon fill="#d5f5fc" fill-opacity="0.501961" points="17,5 29,-16 37,36" />
<polygon fill="#cdf1fa" fill-opacity="0.501961" points="62,101 49,81 55,44" />
<polygon fill="#faf9b7" fill-opacity="0.501961" points="206,182 185,216 199,239" />
<polygon fill="#fff700" fill-opacity="0.501961" points="176,32 165,50 191,31" />
</g>
</svg>